<svg
   width="200"
   height="200"
   viewBox="0 0 200 200"
   xmlns="http://www.w3.org/2000/svg">
  <g fill="none" fill-rule="evenodd">
    <path
       d="M 106.56445,30.5 93.474609,53 C 86.274404,65.374892 71.445745,91.025171 60.523438,110 49.601121,128.97482 38.939797,147.39723 36.832031,150.9375 34.724265,154.47778 33,157.74028 33,158.1875 33,158.63473 37.923544,159 43.941406,159 h 10.941406 l 5.425782,-9.25 c 2.984019,-5.08741 11.635444,-20.05009 19.224609,-33.25 7.589174,-13.19991 16.016716,-27.825045 18.728516,-32.5 2.711821,-4.674955 7.200201,-12.496653 9.972661,-17.380859 3.39304,-5.977621 5.27772,-8.429214 5.76562,-7.5 0.39866,0.759242 1.97249,6.482056 3.49805,12.716797 l 2.77343,11.335937 -2.29687,4.164063 c -1.26365,2.290178 -5.43226,9.564125 -9.26367,16.164062 -3.8315,6.59991 -8.66185,14.925 -10.734378,18.5 -2.072506,3.575 -7.641071,13.15892 -12.373046,21.29688 C 80.871532,151.43477 77,158.29736 77,158.54688 c 0,0.24942 5.062554,0.4484 11.25,0.4414 l 11.25,-0.0137 12.90234,-22.50391 c 7.09601,-12.37696 13.41494,-23.20557 14.04297,-24.06445 0.91284,-1.24838 2.43633,3.21689 7.59766,22.26563 L 140.5,158.5 l 9.75,0.28711 c 8.80318,0.25842 9.74819,0.11277 9.74219,-1.5 -0.004,-0.98241 -3.54215,-14.83729 -7.86328,-30.78711 C 140.25982,82.690218 141.16348,87.827535 144.25,81.724609 145.70315,78.851328 148.73234,73.237464 150.98047,69.25 L 155.06836,62 h -9.99609 -9.9961 l -1.0957,-4.25 C 133.37756,55.412518 131.4471,48.324946 129.69141,42 L 126.5,30.5 h -9.9668 z M 2.96875,171.8125 c 0.028982,0.0845 0.044184,0.15041 0.074219,0.23633 0.2532766,0.72457 -0.015244,-0.0655 -0.035156,-0.1211 0.1711901,0.2398 0.093363,0.1 -0.039063,-0.11523 z m 3.2460938,0.65234 c 0.013235,0.007 0.019901,0.0107 0.033203,0.0176 0.1604559,0.0835 0.6857485,0.22953 0.5136719,0.17383 -0.3086489,-0.0998 -0.4159774,-0.14644 -0.546875,-0.19141 z" fill="#ffffff" />
    <path
       d="M 86.5,198.95994 C 45.257953,192.5464 13.485067,164.05661 3.4731549,124.51227 0.26564695,111.84348 -0.57913813,99.953361 0.91450675,88.5 6.3980203,46.452079 34.601653,14.247289 75.5,3.3333052 84.185602,1.0154971 87.405878,0.66791632 100,0.68889527 c 12.44061,0.0207232 15.92027,0.39973153 24.5,2.66856363 36.27444,9.5924481 62.9592,36.3155301 72.02685,72.1302761 4.65937,18.403283 4.2872,35.391705 -1.17178,53.487455 -12.34554,40.92369 -48.96326,69.04223 -91.85507,70.53498 -6.05,0.21056 -13.7,-0.037 -17,-0.55023 z M 60.308869,149.75 C 63.292915,144.6625 71.943783,129.7 79.53302,116.5 87.122257,103.3 95.550393,88.675 98.262211,84 c 2.711819,-4.675 7.198959,-12.496205 9.971419,-17.380456 3.39313,-5.977675 5.27778,-8.429223 5.76568,-7.5 0.39866,0.759251 1.97301,6.481652 3.49857,12.716447 l 2.77374,11.335991 -2.29753,4.164009 c -1.26365,2.290205 -5.4324,9.564009 -9.2639,16.164009 -3.8315,6.6 -8.66207,14.925 -10.734602,18.5 -2.072533,3.575 -7.639895,13.15835 -12.371915,21.29634 C 80.871653,151.43432 77,158.29682 77,158.54634 c 0,0.24951 5.0625,0.44798 11.25,0.44103 l 11.25,-0.0126 12.90184,-22.5039 c 7.09601,-12.37714 13.41568,-23.20661 14.04371,-24.06549 0.91284,-1.24838 2.43683,3.2177 7.59816,22.26653 L 140.5,158.5 l 9.75,0.28621 c 8.80327,0.25842 9.74933,0.11277 9.74311,-1.5 C 159.98933,156.3038 156.45068,142.45 152.12946,126.5 140.26028,82.689822 141.16424,87.827177 144.25076,81.724197 145.70391,78.850889 148.73223,73.2375 150.98036,69.25 L 155.06788,62 h -9.9954 -9.99539 l -1.09622,-4.25 C 133.37796,55.4125 131.44811,48.325 129.69233,42 L 126.5,30.5 h -9.96733 -9.96733 L 93.473923,53 C 86.273646,65.375 71.445995,91.025 60.523589,110 49.601182,128.975 38.940118,147.39659 36.832334,150.93686 34.72455,154.47714 33,157.73964 33,158.18686 33,158.63409 37.923749,159 43.941665,159 h 10.941666 z" fill="#242424" />
  </g>
</svg>
